<svg id="Layer_1" data-name="Layer 1" xmlns="http://www.w3.org/2000/svg" width="77" height="59" viewBox="0 0 77 59"><defs><style>.cls-1{fill:#7e4d91;}</style></defs><title>icons_7</title><path class="cls-1" d="M65.8,26.6,41.4,2.2a4.1,4.1,0,0,0-5.8,0L11.2,26.6a4.1,4.1,0,0,0,0,5.8L35.6,56.8a4.1,4.1,0,0,0,5.8,0L65.8,32.4A4.1,4.1,0,0,0,65.8,26.6Zm-1.3,4.5L40.1,55.5a2.2,2.2,0,0,1-3.2,0L12.5,31.1a2.4,2.4,0,0,1,0-3.2L36.9,3.5a2.4,2.4,0,0,1,3.2,0L64.5,27.9a2.4,2.4,0,0,1,0,3.2Z"/><path class="cls-1" d="M23.6,24.8a4.6,4.6,0,1,0,4.6,4.5A4.5,4.5,0,0,0,23.6,24.8Zm0,8a3.5,3.5,0,0,1-3.4-3.5,3.4,3.4,0,0,1,3.4-3.4,3.5,3.5,0,0,1,3.5,3.4A3.5,3.5,0,0,1,23.6,32.8Z"/><path class="cls-1" d="M38,24.8a4.6,4.6,0,1,0,4.6,4.5A4.5,4.5,0,0,0,38,24.8Zm0,8a3.5,3.5,0,0,1-3.4-3.5A3.4,3.4,0,0,1,38,25.9a3.5,3.5,0,0,1,3.5,3.4A3.5,3.5,0,0,1,38,32.8Z"/><path class="cls-1" d="M52,24.8a4.6,4.6,0,1,0,4.5,4.5A4.5,4.5,0,0,0,52,24.8Zm0,8a3.5,3.5,0,0,1-3.5-3.5A3.5,3.5,0,0,1,52,25.9a3.4,3.4,0,0,1,3.4,3.4A3.5,3.5,0,0,1,52,32.8Z"/></svg>