<svg id="Layer_1" data-name="Layer 1" xmlns="http://www.w3.org/2000/svg" width="77" height="59" viewBox="0 0 77 59"><defs><style>.cls-1{fill:#2b9347;}</style></defs><title>icons_7</title><path class="cls-1" d="M67.4,13.9a5,5,0,0,0-2.7-4l-4.3-2a21.2,21.2,0,0,0-4.5-1.2,7,7,0,0,0-5.6-2.8H43.7a7.5,7.5,0,0,0-3.6,1,6.6,6.6,0,0,0-1.9,1.8,20.3,20.3,0,0,0-5,1.2l-.4.2c.6-2.1,1.3-3.8,1.3-3.9a.8.8,0,0,0-.1-.9A6.2,6.2,0,0,0,31.7,1a.9.9,0,0,0-1.1.2c-2.7,2.5-8.7,3.5-10.7,3.5s-8-1-10.7-3.5A.9.9,0,0,0,8.1,1C6.9,1.5,6,3.5,5.6,4.4a1,1,0,0,0,.1.9,14.6,14.6,0,0,1,1.8,6.1,18.9,18.9,0,0,0,.9,5.1h0a21.3,21.3,0,0,1,1,5.6A16.3,16.3,0,0,1,8.1,27h0A36.8,36.8,0,0,0,5.6,40,53.5,53.5,0,0,0,8.5,57.4a1,1,0,0,0,.9.7H30.3a1.1,1.1,0,0,0,1-.7,43.5,43.5,0,0,0,1.8-6.6c0,.1,0,.1.1.1s4.9,2.5,14,2.5S61.1,51,61.3,50.9a.8.8,0,0,0,.5-.8v-10l1.4,12.5a.9.9,0,0,0,.9.8h6.5a.9.9,0,0,0,.6-.3.6.6,0,0,0,.2-.7Zm-56,8.4H24.5c.4,0,.8-.3.8-.6s-.4-.6-.8-.6H11.3a21,21,0,0,0-1-5.1,20.2,20.2,0,0,1-.8-4.6A18.2,18.2,0,0,0,7.7,4.7a4.7,4.7,0,0,1,.8-1.4C12,5.9,18.1,6.7,19.9,6.7s8-.8,11.4-3.5A2.7,2.7,0,0,1,32,4a25.3,25.3,0,0,0-1.7,7.4,16.2,16.2,0,0,1-.9,4.6,25.1,25.1,0,0,0-1,6.1,18.6,18.6,0,0,0,1.3,5.6A33,33,0,0,1,32.2,40a57.8,57.8,0,0,1-2.6,16.1H10.2A54.2,54.2,0,0,1,7.6,40,33.3,33.3,0,0,1,10,27.7,21.6,21.6,0,0,0,11.4,22.3Zm48.7,1.8h0a.4.4,0,0,0-.1.3V49.5c-1.2.6-5.6,2.1-12.8,2.1H45.7l2.4-18.2.6-2.1,9.8-18.1a.9.9,0,0,0,0-.7L56.9,8.7l2.8.8,4.2,2,.9.7L60.1,24.1Zm-9.2-.6L55,8.7l1.7,4.1ZM39.3,8.4l4.2,15L37.8,12.7l1.3-4.2h.2Zm7.9,21.5L40.9,7.3a1,1,0,0,0-.4-.5,5.2,5.2,0,0,1,3.2-1.1h6.6a5,5,0,0,1,3.4,1.2ZM65.7,14.8l3.9,36.8H64.9L61.8,24.5Zm-33,9.7-.5,4.1L31.6,27h0a15.7,15.7,0,0,1-1.2-4.9,13.3,13.3,0,0,1,.3-2.8Zm-.3-14.2,1.5-.8,3.3-.8-1.3,3.8a1.5,1.5,0,0,0,.1.7l9.7,18,.6,2.1L43.9,51.5a28.7,28.7,0,0,1-9.4-2V24.4c0-.1-.1-.1-.1-.2h0l-2.9-7.9a20.1,20.1,0,0,0,.8-4.8A4.5,4.5,0,0,1,32.4,10.3Z"/><path class="cls-1" d="M49.6,38.8a.9.9,0,0,0,0,1.8.9.9,0,1,0,0-1.8Z"/><path class="cls-1" d="M48,43.6a.9.9,0,1,0,.9.9A.9.9,0,0,0,48,43.6Z"/></svg>