<svg id="Layer_1" data-name="Layer 1" xmlns="http://www.w3.org/2000/svg" width="77" height="59" viewBox="0 0 77 59"><defs><style>.cls-1{fill:#e24959;}</style></defs><title>icons_7</title><path class="cls-1" d="M74.4.6H34A1.4,1.4,0,0,0,32.6,2V15.9H3.7a2.6,2.6,0,0,0-2.6,2.6V49a2.6,2.6,0,0,0,2.6,2.6H23v1.7L10.2,56.4l-.6.5a1.7,1.7,0,0,0-.1.7c.1.3.2.5.5.6l.5.2h.2L24.1,55h4.8l13.4,3.4h.2a1,1,0,0,0,1-.8v-.2H74.4A1.4,1.4,0,0,0,75.8,56V2A1.4,1.4,0,0,0,74.4.6Zm-39.8,2H48.5v7.6H34.6ZM28,53H25V51.6h3ZM3.7,49.7A.8.8,0,0,1,3,49V18.6a.8.8,0,0,1,.7-.7H49.2a.8.8,0,0,1,.7.7V49a.7.7,0,0,1-.7.7ZM51.9,20.8a9.1,9.1,0,0,1,2.3-.3,8.4,8.4,0,1,1,0,16.8,8.5,8.5,0,0,1-2.3-.3Zm0,17.2a9.1,9.1,0,0,0,2.3.3,9.4,9.4,0,1,0,0-18.8,9.1,9.1,0,0,0-2.3.3V18.3a8.5,8.5,0,0,1,2.3-.3,10.9,10.9,0,0,1,0,21.8l-2.3-.2ZM30,51.6h2.6v2.3L30,53.3Zm26.6,3.8h-18l-4-1V51.6H49.2a2.8,2.8,0,0,0,2.7-2.1h4.7Zm17.2,0H58.4V49.5H73.8Zm0-7.6H51.9V41.6l2.3.2a12.9,12.9,0,0,0,0-25.8,12.7,12.7,0,0,0-3.4.5,2.8,2.8,0,0,0-1.6-.5H34.6V11.8H73.8Zm0-37.6H50.3V2.6H73.8Z"/><path class="cls-1" d="M55.2,8.7a2.3,2.3,0,0,0,2.3-2.3A2.3,2.3,0,0,0,55.2,4a2.4,2.4,0,0,0-2.4,2.4A2.3,2.3,0,0,0,55.2,8.7Zm0-3.9a1.6,1.6,0,0,1,1.6,1.6,1.6,1.6,0,1,1-3.2,0A1.6,1.6,0,0,1,55.2,4.8Z"/><path class="cls-1" d="M69.9,4.2H60.8V8.3h9.1Zm-.8,3.4H61.5V5h7.6Z"/><path class="cls-1" d="M5.2,47.6H47.8V20.1H5.2Zm.7-26.8H47.1V46.9H5.9Z"/></svg>