<svg id="Layer_1" data-name="Layer 1" xmlns="http://www.w3.org/2000/svg" width="77" height="59" viewBox="0 0 77 59"><defs><style>.cls-1{fill:#e24959;}</style></defs><title>icons_7</title><path class="cls-1" d="M41.3,22.7c-.5,0-.8.4-.8,1v3.9a.9.9,0,0,0,.8,1,1,1,0,0,0,.8-1V23.7A.9.9,0,0,0,41.3,22.7Z"/><path class="cls-1" d="M75.9,19.8V13.9a1,1,0,0,0-1-1H70.1C69.4,8,68.2,3,66.5,2.4S49.1,1.1,47.4,1.1s-16.7.4-19.1,1.3S25.7,7,24.9,11.5H20c-.4.1-.6.1-.7.3a1.3,1.3,0,0,0-.4.7v5.7L18,19.2,16.8,21a5.9,5.9,0,0,0-2.3-.5,7.3,7.3,0,0,0-3,.7l-1.6-2a6.1,6.1,0,0,0-5.1-2.8H2a1,1,0,0,0-1,1,1.1,1.1,0,0,0,1,1.1H4.8a4.2,4.2,0,0,1,3.4,1.9l1.6,2a6.7,6.7,0,0,0-1.9,4.7,5.7,5.7,0,0,0,.3,1.8c-2.1.4-3.1,2.7-3.1,4.8v4.5c-1.4,1.9-1.4,3.7-1.4,5.9v.7c0,4.4,1.3,7.5,3.9,9.4l.6.2a1,1,0,0,0,.8-.5.8.8,0,0,0,.2-.8v-5a4,4,0,0,1,4-4h2.5a4,4,0,0,1,4,4v4.6a1.1,1.1,0,0,0,.2.8.9.9,0,0,0,.8.4h.4l1.3.2h4.8a3.4,3.4,0,0,0,3.5-3.4V40.4h.4l1.7,3.3a1,1,0,0,0,.9.6H61.1a.9.9,0,0,0,.9-.6l1.7-3.3h.4V50.7a3.5,3.5,0,0,0,3.5,3.4h4.8a3.5,3.5,0,0,0,3.5-3.4v-27a1.1,1.1,0,0,0-.8-1l-4.2-.8V20.7h4A1,1,0,0,0,75.9,19.8Zm-7-.7v2.6H67a.9.9,0,0,0-.9.9l-.9,7.9H29.7l-.9-7.9a1,1,0,0,0-1-.9H25.9V19.2c0-.3.1-.6.1-.9a.8.8,0,0,0,.5-.7c1.8-.3,16-2.8,20.9-2.8s20.9,2.8,21.1,2.8h.3C68.8,18.1,68.9,18.6,68.9,19.1ZM19,27.1a4.5,4.5,0,0,1-4.5,4.5,4.5,4.5,0,0,1,0-9A4.5,4.5,0,0,1,19,27.1Zm.5-4.3a6,6,0,0,1-.8-.8l1.1-1.7a4,4,0,0,1,3.4-1.8H24a1.3,1.3,0,0,1-.1.6v2.8l-4.1.8Zm3.6,7.7a3.5,3.5,0,0,0-2.3-1.6,5.5,5.5,0,0,0,.2-1.8v-1h0V24.5l4.1-.8h1.9l.9,6.8Zm-2.3-5.2a.4.4,0,0,0,.1.3A.4.4,0,0,1,20.8,25.3ZM29,4.2c1.6-.5,12.1-1,18.4-1.1s16.9.6,18.4,1.1,2,5.9,2.7,11.4c-2.3-.4-16.1-2.7-21.1-2.7s-18.8,2.3-21.1,2.7C27.1,10.1,28.2,4.8,29,4.2Zm-4.4,9.3a28.9,28.9,0,0,1-.4,2.9h-1a5.4,5.4,0,0,0-2.2.4V13.5ZM15.7,42.2H13.2a5.9,5.9,0,0,0-5.9,5.9v2.8a10.8,10.8,0,0,1-1.5-6.1v-.7c0-2.2,0-3.5,1.2-4.9a1.1,1.1,0,0,0,.2-.6V33.7c0-1.3.6-2.8,1.8-2.8h.1a6.9,6.9,0,0,0,5.4,2.8,6.6,6.6,0,0,0,5.3-2.8H20c1.5,0,1.7,1.5,1.7,2.4v4.8a1.4,1.4,0,0,0,.2.7c1.2,1.4,1.2,2.7,1.2,4.9v.7a10.2,10.2,0,0,1-1.5,6V48.1A5.8,5.8,0,0,0,15.7,42.2Zm13.1,8.5a1.5,1.5,0,0,1-1.6,1.4H23c1.5-1.8,2.2-4.4,2.2-7.7v-.7a17.2,17.2,0,0,0-.2-3.3h3.8ZM63.1,38.4a1.1,1.1,0,0,0-.9.5l-1.7,3.4H34.3l-1.7-3.4a1.1,1.1,0,0,0-.9-.5H24.2l-.4-.6V33.3a2,2,0,0,0-.1-.7H73.9v4.3l-3.2,1.6Zm9.3,13.7H67.6a1.4,1.4,0,0,1-1.5-1.4V40.4h5.3L73.9,39V50.7A1.5,1.5,0,0,1,72.4,52.1Zm1.5-27.6v6H67.2l.7-6.8h1.9Zm0-5.7H70.8c-.1-1.2-.2-2.6-.4-4h3.5Z"/><path class="cls-1" d="M47.2,22.7a.9.9,0,0,0-.9,1v3.9a.9.9,0,1,0,1.7,0V23.7A.9.9,0,0,0,47.2,22.7Z"/><path class="cls-1" d="M53,22.7a.9.9,0,0,0-.8,1v3.9a.9.9,0,1,0,1.7,0V23.7A.9.9,0,0,0,53,22.7Z"/><path class="cls-1" d="M34.7,19a3.7,3.7,0,1,0,3.6,3.7A3.7,3.7,0,0,0,34.7,19Zm0,6.2a2.5,2.5,0,1,1,2.4-2.5A2.5,2.5,0,0,1,34.7,25.2Z"/><path class="cls-1" d="M60.3,19A3.7,3.7,0,1,0,64,22.7,3.7,3.7,0,0,0,60.3,19Zm0,6.2a2.5,2.5,0,0,1,0-5,2.5,2.5,0,0,1,0,5Z"/><path class="cls-1" d="M36.4,34.5a2.2,2.2,0,0,0-2.1,2.1,2.1,2.1,0,0,0,2.1,2.1,2.1,2.1,0,0,0,2.1-2.1A2.1,2.1,0,0,0,36.4,34.5Zm0,3.6A1.5,1.5,0,0,1,35,36.6a1.4,1.4,0,0,1,2.8,0A1.5,1.5,0,0,1,36.4,38.1Z"/><path class="cls-1" d="M58.6,34.5a2.1,2.1,0,0,0-2.1,2.1,2.1,2.1,0,0,0,2.1,2.1,2.1,2.1,0,0,0,2.1-2.1A2.2,2.2,0,0,0,58.6,34.5Zm0,3.6a1.5,1.5,0,0,1-1.4-1.5,1.4,1.4,0,0,1,2.8,0A1.5,1.5,0,0,1,58.6,38.1Z"/><path class="cls-1" d="M15.2,45.4H13.8a3.1,3.1,0,0,0-3.1,3.1v6.9a3.1,3.1,0,0,0,3.1,3.1h1.4a3.1,3.1,0,0,0,3.1-3.1V48.5A3.1,3.1,0,0,0,15.2,45.4Zm1,3.1v6.9a1,1,0,0,1-1,1H13.8a.9.9,0,0,1-1-1V48.5a.9.9,0,0,1,1-1h1.4A1,1,0,0,1,16.2,48.5Z"/><path class="cls-1" d="M14,35.7a7,7,0,0,0-5.4,2.7.6.6,0,0,0,.1.8.6.6,0,0,0,.9-.1A5.7,5.7,0,0,1,14,36.9a5.7,5.7,0,0,1,4.4,2.2c.2.2.3.3.5.3l.4-.2a.5.5,0,0,0,.1-.8A6.8,6.8,0,0,0,14,35.7Z"/></svg>